<?xml version="1.0" encoding="utf-8"?>
<!-- Generator: Adobe Illustrator 26.3.1, SVG Export Plug-In . SVG Version: 6.00 Build 0)  -->
<svg version="1.1" id="Layer_1" xmlns="http://www.w3.org/2000/svg" xmlns:xlink="http://www.w3.org/1999/xlink" x="0px" y="0px"
	 viewBox="0 0 500 792" style="enable-background:new 0 0 500 792;" xml:space="preserve">
<path d="M524.6,361.6c0,29,3.5,78.7,4.9,117.9c0.8,17.7-14.4,32.6-34.2,33.5c-38,1.7-96,4.1-115.3,4.1H153
	c-55.4,0-109.8-3.2-146.7-4.7c-17.7-0.8-32.2-12.8-34.1-28.7c-3.1-25.7-7.3-64.3-7.3-94.1l5.7-268.3c0-17.8,0.2-40.4,0.3-59.5
	c0.1-17.7,16.3-31.9,36-31.9h181.8c51.7,0,59.7,2.7,122.2,2.7s107.6,1.1,132.9,0.5c13.2-0.5,34.9,0.6,53.2,1.5
	c18.8,1,33.5,14.8,34,31.7c0.2,15.9,0.7,35.6,0.7,51.8L524.6,361.6z"/>
<polyline points="-0.2,97.9 0,792 500,792 501.5,163 "/>
</svg>
