<?xml version="1.0" encoding="utf-8"?>
<!-- Generator: Adobe Illustrator 26.3.1, SVG Export Plug-In . SVG Version: 6.00 Build 0)  -->
<svg version="1.1" id="Layer_1" xmlns="http://www.w3.org/2000/svg" xmlns:xlink="http://www.w3.org/1999/xlink" x="0px" y="0px"
	 viewBox="0 0 500 500" style="enable-background:new 0 0 500 500;" xml:space="preserve">
<path d="M29.5,174c0-25.5-2.7-69.3-3.9-103.8C25,54.6,36.9,41.5,52.5,40.7c29.9-1.5,75.5-3.6,90.7-3.6h178.6
	c43.6,0,86.4,2.8,115.4,4.1c13.9,0.7,25.3,11.3,26.8,25.3c2.5,22.6,5.7,56.6,5.7,82.8l-4.5,236.2c0,15.7-0.2,35.6-0.3,52.4
	c-0.1,15.6-12.8,28.1-28.3,28.1H293.6c-40.7,0-46.9-2.4-96.1-2.4s-84.6-1-104.6-0.4c-10.4,0.4-27.4-0.5-41.8-1.3
	c-14.8-0.9-26.4-13-26.7-27.9c-0.2-14-0.5-31.3-0.5-45.6L29.5,174z"/>
</svg>
