<?xml version="1.0" encoding="utf-8"?>
<!-- Generator: Adobe Illustrator 26.3.1, SVG Export Plug-In . SVG Version: 6.00 Build 0)  -->
<svg version="1.1" id="Layer_1" xmlns="http://www.w3.org/2000/svg" xmlns:xlink="http://www.w3.org/1999/xlink" x="0px" y="0px"
	 viewBox="0 0 1008.1 192.1" style="enable-background:new 0 0 1008.1 192.1;" xml:space="preserve">
<path d="M938.6,127.1c0.8,17.7-14.4,32.6-34.2,33.5c-38,1.7-96,4.1-115.3,4.1H249.9c-55.4,0-109.8-3.2-146.7-4.7
	c-17.7-0.8-32.2-12.8-34.1-28.7l-1.2-71.9c0.1-17.7,16.3-31.9,36-31.9h181.8c51.7,0,371.9,2.7,434.4,2.7s107.6,1.1,132.9,0.5
	c13.2-0.5,34.9,0.6,53.2,1.5c18.8,1,33.5,14.8,34,31.7L938.6,127.1z"/>
</svg>
