<svg id="Layer_1" data-name="Layer 1" xmlns="http://www.w3.org/2000/svg" viewBox="0 0 612 612"><path d="M381.23,268.78h12.22v-.31a12,12,0,0,0-12-12H230.55a12,12,0,0,0-12,12v.31h12.22a10,10,0,0,1,10,10v.43a10,10,0,0,1-10,10H218.55v6.57h12.22a10,10,0,0,1,10,10v.43a10,10,0,0,1-10,10H218.55v6.57h12.22a10,10,0,0,1,10,10v.43a10,10,0,0,1-10,10H218.55v.32a12,12,0,0,0,12,12h150.9a12,12,0,0,0,12-12v-.32H381.23a10,10,0,0,1-10-10v-.43a10,10,0,0,1,10-10h12.22v-6.57H381.23a10,10,0,0,1-10-10v-.43a10,10,0,0,1,10-10h12.22v-6.57H381.23a10,10,0,0,1-10-10v-.43A10,10,0,0,1,381.23,268.78ZM269.82,315.19a5.62,5.62,0,0,1-11.24,0V296.81a5.62,5.62,0,0,1,11.24,0Zm63.51,8.13a10,10,0,0,1-10,10H288.68a10,10,0,0,1-10-10V288.68a10,10,0,0,1,10-10h34.65a10,10,0,0,1,10,10Z"/></svg>